<svg width="26" height="26" viewBox="0 0 26 26" fill="none" xmlns="http://www.w3.org/2000/svg">
<path d="M19.4794 0H6.5C2.93016 0 0 2.93016 0 6.52064V19.5C0 23.0698 2.93016 26 6.5 26H19.4794C23.0698 26 26 23.0698 26 19.4794V6.52064C26 2.93016 23.0698 0 19.4794 0ZM16.4873 13H14.0317V21.0476H10.9365V13H9.28571V9.69841H10.7302V8.29524C10.7302 6.9746 11.3905 4.89048 14.1762 4.89048H16.7143V7.63492H14.919C14.6302 7.63492 14.2381 7.82064 14.2381 8.46032V9.69841H16.7762L16.4873 13Z" fill="black"/>
</svg>
