<svg width="26" height="26" viewBox="0 0 26 26" fill="none" xmlns="http://www.w3.org/2000/svg">
<path d="M15.2992 11.3299C14.7837 10.6083 13.9384 10.134 12.9899 10.134C12.0414 10.134 11.1961 10.6083 10.6806 11.3299C10.3507 11.8041 10.1445 12.3815 10.1445 13C10.1445 14.567 11.4229 15.8454 12.9899 15.8454C14.5569 15.8454 15.8353 14.567 15.8353 13C15.8353 12.3815 15.6291 11.8041 15.2992 11.3299Z" fill="black"/>
<path d="M17.0928 11.3506C17.2989 11.763 17.4227 12.4228 17.4227 13.0001C17.4227 15.4331 15.4433 17.4331 12.9897 17.4331C10.5361 17.4331 8.55667 15.4537 8.55667 13.0001C8.55667 12.4021 8.68038 11.763 8.88657 11.3506H6.39172V17.9692C6.39172 18.8351 7.15461 19.598 8.02059 19.598H17.9587C18.8247 19.598 19.5876 18.8351 19.5876 17.9692V11.3506H17.0928Z" fill="black"/>
<path d="M18.8452 6.7733H16.4534V9.51557H19.1751V7.12382V6.75269L18.8452 6.7733Z" fill="black"/>
<path d="M19.4639 0.00952148H6.51546C2.92784 0.00952148 0 2.93736 0 6.52499V19.4941C0 23.0611 2.92784 25.9889 6.51546 25.9889H19.4845C23.0722 25.9889 26 23.0611 26 19.4734V6.52499C25.9794 2.93736 23.0515 0.00952148 19.4639 0.00952148ZM21.0309 11.3291V17.9683C21.0309 19.7002 19.6907 21.0404 17.9588 21.0404H8.02062C6.28866 21.0404 4.94845 19.7002 4.94845 17.9683V11.3291V8.03014C4.94845 6.29818 6.28866 4.95798 8.02062 4.95798H17.9588C19.6907 4.95798 21.0309 6.29818 21.0309 8.03014V11.3291Z" fill="black"/>
</svg>
