<svg width="26" height="26" viewBox="0 0 26 26" fill="none" xmlns="http://www.w3.org/2000/svg">
<path d="M19.4639 0.00952148H6.51546C2.92784 0.00952148 0 2.93736 0 6.52499V19.4941C0 23.0611 2.92784 25.9889 6.51546 25.9889H19.4845C23.0722 25.9889 26 23.0611 26 19.4734V6.52499C25.9794 2.93736 23.0515 0.00952148 19.4639 0.00952148ZM8.65979 21.0404H4.94845V10.3188H8.65979V21.0404ZM6.78351 8.66932C5.73196 8.66932 4.8866 7.82395 4.8866 6.77241C4.8866 5.72086 5.73196 4.8755 6.78351 4.8755C7.83505 4.8755 8.68041 5.72086 8.68041 6.77241C8.65979 7.82395 7.81443 8.66932 6.78351 8.66932ZM21.0515 21.0404H21.0309H17.9381V15.8446C17.9381 14.5868 17.7732 12.9786 16.0619 12.9786C14.3093 12.9786 14.0206 14.3394 14.0206 15.7621V21.0404H10.9278V10.3188H13.8144V11.7621H13.8969C14.3505 10.9374 15.4021 10.2982 17.0515 10.2982C20.4536 10.2982 21.0515 12.2569 21.0515 15.1642V21.0404Z" fill="black"/>
</svg>
