<svg width="26" height="26" viewBox="0 0 26 26" fill="none" xmlns="http://www.w3.org/2000/svg">
<path d="M19.4639 0.00952148H6.51546C2.92784 0.00952148 0 2.93736 0 6.52499V19.4941C0 23.0611 2.92784 25.9889 6.51546 25.9889H19.4845C23.0722 25.9889 26 23.0611 26 19.4734V6.52499C25.9794 2.93736 23.0515 0.00952148 19.4639 0.00952148ZM19.4433 9.74148C19.4433 9.88581 19.4433 10.0301 19.4433 10.1745C19.4433 14.5044 16.1031 19.4941 9.97938 19.4941C8.10309 19.4941 6.35052 18.958 4.8866 18.0301C5.15464 18.0508 5.40206 18.0714 5.6701 18.0714C7.23711 18.0714 8.65979 17.5559 9.79381 16.6693C8.3299 16.6487 7.1134 15.7002 6.68041 14.4013C6.8866 14.4425 7.09278 14.4631 7.29897 14.4631C7.60825 14.4631 7.91753 14.4219 8.18557 14.3394C6.70103 14.0301 5.56701 12.7106 5.56701 11.1229V11.0817C5.97938 11.3291 6.51546 11.4734 7.05155 11.4941C6.16495 10.9167 5.56701 9.90643 5.56701 8.77241C5.56701 8.17447 5.73196 7.61777 6.02062 7.12292C7.6701 9.1023 10.1031 10.4013 12.866 10.5456C12.8041 10.2982 12.7835 10.0508 12.7835 9.80334C12.7835 7.9889 14.268 6.52499 16.1031 6.52499C17.0515 6.52499 17.9175 6.91674 18.5361 7.55591C19.299 7.41158 20 7.14354 20.6392 6.75179C20.3918 7.51468 19.8557 8.15385 19.1753 8.56622C19.8557 8.48375 20.4948 8.3188 21.0928 8.05076C20.6392 8.71055 20.0825 9.28787 19.4433 9.74148Z" fill="black"/>
</svg>
