<svg width="26" height="26" viewBox="0 0 26 26" fill="none" xmlns="http://www.w3.org/2000/svg">
<path d="M11.3286 10.4414V15.1874L15.7032 12.8351L11.3286 10.4414Z" fill="black"/>
<path d="M19.4794 0H6.5C2.93016 0 0 2.93016 0 6.52064V19.5C0 23.0698 2.93016 26 6.5 26H19.4794C23.0698 26 26 23.0698 26 19.4794V6.52064C26 2.93016 23.0698 0 19.4794 0ZM21.0476 13.6397C21.0476 15.0016 20.9238 16.3841 20.9238 16.3841C20.9238 16.3841 20.7794 17.5397 20.3048 18.0556C19.6857 18.7365 19.0048 18.7365 18.6952 18.7778C16.4254 18.9429 13.0206 18.9635 13.0206 18.9635C13.0206 18.9635 8.79048 18.9016 7.49048 18.7778C7.13968 18.7159 6.31429 18.7365 5.69524 18.0556C5.2 17.5397 5.07619 16.3841 5.07619 16.3841C5.07619 16.3841 4.95238 15.0016 4.95238 13.6397V12.3603C4.95238 10.9984 5.07619 9.61587 5.07619 9.61587C5.07619 9.61587 5.22064 8.46032 5.69524 7.94444C6.31429 7.26349 6.99524 7.24286 7.30476 7.20159C9.59524 7.03651 13 7.01587 13 7.01587C13 7.01587 16.4048 7.03651 18.6746 7.20159C18.9841 7.24286 19.6857 7.26349 20.3048 7.92381C20.8 8.43968 20.9238 9.61587 20.9238 9.61587C20.9238 9.61587 21.0476 10.9984 21.0476 12.3603V13.6397Z" fill="black"/>
</svg>
