<svg width="26" height="27" viewBox="0 0 26 27" fill="none" xmlns="http://www.w3.org/2000/svg">
<path d="M26 2.91071V23.3393C26 24.8772 24.7522 26.125 23.2143 26.125H2.78571C1.24777 26.125 0 24.8772 0 23.3393V2.91071C0 1.37277 1.24777 0.125 2.78571 0.125H23.2143C24.7522 0.125 26 1.37277 26 2.91071Z" fill="#8E8D92"/>
<path fill-rule="evenodd" clip-rule="evenodd" d="M21 13.4678C21 13.4678 21 10.848 20.6659 9.59088C20.4813 8.89638 19.9407 8.35132 19.2505 8.16671C18.0066 7.82825 13 7.82825 13 7.82825C13 7.82825 7.99341 7.82825 6.74945 8.16671C6.05934 8.35132 5.51868 8.89638 5.33407 9.59088C5 10.8436 5 13.4678 5 13.4678C5 13.4678 5 16.0876 5.33407 17.3447C5.51868 18.0392 6.05934 18.5623 6.74945 18.7469C7.99341 19.081 13 19.081 13 19.081C13 19.081 18.0066 19.081 19.2505 18.7425C19.9407 18.5579 20.4813 18.0348 20.6659 17.3403C21 16.0876 21 13.4678 21 13.4678ZM11.0592 11.2906L15.2438 13.6686L11.0592 16.0466V11.2906Z" fill="#F4F4F4"/>
</svg>
